<?xml version="1.0" standalone="no"?>
<!DOCTYPE svg PUBLIC "-//W3C//DTD SVG 20010904//EN"
 "http://www.w3.org/TR/2001/REC-SVG-20010904/DTD/svg10.dtd">
<svg version="1.0" xmlns="http://www.w3.org/2000/svg"
 width="514.000000pt" height="514.000000pt" viewBox="0 0 514.000000 514.000000"
 preserveAspectRatio="xMidYMid meet">
<metadata>
Created by potrace 1.14, written by Peter Selinger 2001-2017
</metadata>
<g transform="translate(0.000000,514.000000) scale(0.100000,-0.100000)"
fill="#000000" stroke="none">
<path d="M0 2570 l0 -2570 2570 0 2570 0 0 2570 0 2570 -2570 0 -2570 0 0
-2570z m2680 406 c0 -259 2 -295 16 -300 9 -3 144 -6 300 -6 l284 0 0 -95 0
-95 -297 -2 -298 -3 -3 -297 -2 -298 -100 0 -100 0 0 300 0 300 -300 0 -300 0
0 95 0 95 298 2 297 3 3 298 2 297 100 0 100 0 0 -294z"/>
</g>
</svg>
